<?xml version="1.0" encoding="UTF-8" standalone="no"?>
<!DOCTYPE svg PUBLIC "-//W3C//DTD SVG 20010904//EN"
              "http://www.w3.org/TR/2001/REC-SVG-20010904/DTD/svg10.dtd">

<svg xmlns="http://www.w3.org/2000/svg"
     width="0.3in" height="0.3in"
     viewBox="0 0 90 90">
  <path id="Auswahl-Kopie"
        fill="white" stroke="none" stroke-width="1"
        d="M 44.51,5.96
           C 44.51,5.96 44.51,10.98 44.51,10.98
             44.51,10.98 10.41,10.98 10.41,10.98
             10.41,10.98 10.41,43.02 10.41,43.02
             10.41,43.02 5.42,43.02 5.42,43.02
             5.42,43.02 5.42,84.94 5.42,84.94
             5.42,84.94 46.28,84.94 46.28,84.94
             46.28,84.94 46.28,79.92 46.28,79.92
             46.28,79.92 80.39,79.92 80.39,79.92
             80.39,79.92 80.39,47.88 80.39,47.88
             80.39,47.88 85.37,47.88 85.37,47.88
             85.37,47.88 85.37,5.96 85.37,5.96
             85.37,5.96 44.51,5.96 44.51,5.96 Z
           M 75.40,15.99
           C 75.40,15.99 75.40,74.90 75.40,74.90
             75.40,74.90 15.39,74.90 15.39,74.90
             15.39,74.90 15.39,15.99 15.39,15.99
             15.39,15.99 75.40,15.99 75.40,15.99 Z" />
</svg>
