<?xml version="1.0" encoding="UTF-8" standalone="no"?>
<!DOCTYPE svg PUBLIC "-//W3C//DTD SVG 20010904//EN"
              "http://www.w3.org/TR/2001/REC-SVG-20010904/DTD/svg10.dtd">

<svg xmlns="http://www.w3.org/2000/svg"
     width="4.11111in" height="1.55556in"
     viewBox="0 0 370 140">
  <path id="Auswahl-Kopie #1"
        fill="white" stroke="none" stroke-width="1"
        d="M 150.00,37.00
           C 150.00,37.00 150.00,105.00 150.00,105.00
             150.00,105.00 190.00,105.00 190.00,105.00
             190.00,105.00 190.00,92.00 190.00,92.00
             190.00,92.00 164.00,92.00 164.00,92.00
             164.00,92.00 164.00,37.00 164.00,37.00
             164.00,37.00 150.00,37.00 150.00,37.00 Z
           M 241.00,95.00
           C 238.49,93.88 233.41,90.82 231.00,90.97
             228.60,91.12 226.22,93.28 223.00,94.18
             215.79,96.22 210.28,92.05 207.00,86.00
             207.00,86.00 243.00,86.00 243.00,86.00
             244.66,76.57 241.99,65.65 233.96,59.64
             220.49,49.55 199.26,55.89 194.22,72.00
             190.92,82.56 193.80,94.72 203.00,101.36
             213.76,109.13 234.74,108.12 241.00,95.00 Z
           M 267.00,55.53
           C 259.50,57.76 253.87,61.79 250.40,69.00
             242.56,85.31 253.45,105.54 272.00,105.99
             279.76,106.17 285.85,105.10 291.70,99.53
             304.56,87.30 301.66,64.37 285.00,56.97
             279.63,54.58 272.70,54.60 267.00,55.53 Z
           M 321.00,60.00
           C 321.00,60.00 321.00,56.00 321.00,56.00
             321.00,56.00 307.00,56.00 307.00,56.00
             307.00,56.00 307.00,105.00 307.00,105.00
             307.00,105.00 321.00,105.00 321.00,105.00
             321.00,105.00 321.00,81.00 321.00,81.00
             321.01,78.35 320.89,75.45 322.17,73.04
             326.30,65.28 339.79,64.69 340.00,80.00
             340.00,80.00 340.00,105.00 340.00,105.00
             340.00,105.00 353.00,105.00 353.00,105.00
             353.00,105.00 353.00,81.00 353.00,81.00
             353.00,76.85 353.40,70.79 352.03,67.00
             347.05,53.19 331.50,51.64 321.00,60.00 Z
           M 230.00,76.00
           C 230.00,76.00 207.00,76.00 207.00,76.00
             209.79,62.92 227.21,62.92 230.00,76.00 Z
           M 272.00,67.37
           C 290.62,66.80 291.24,91.50 275.00,93.63
             260.01,95.61 254.32,71.49 272.00,67.37 Z
           M 68.60,19.40
           C 68.60,19.40 68.60,25.91 68.60,25.91
             68.60,25.91 24.09,25.91 24.09,25.91
             24.09,25.91 24.09,67.48 24.09,67.48
             24.09,67.48 17.58,67.48 17.58,67.48
             17.58,67.48 17.58,121.86 17.58,121.86
             17.58,121.86 70.91,121.86 70.91,121.86
             70.91,121.86 70.91,115.35 70.91,115.35
             70.91,115.35 115.42,115.35 115.42,115.35
             115.42,115.35 115.42,73.78 115.42,73.78
             115.42,73.78 121.93,73.78 121.93,73.78
             121.93,73.78 121.93,19.40 121.93,19.40
             121.93,19.40 68.60,19.40 68.60,19.40 Z
           M 108.92,32.42
           C 108.92,32.42 108.92,108.85 108.92,108.85
             108.92,108.85 30.60,108.85 30.60,108.85
             30.60,108.85 30.60,32.42 30.60,32.42
             30.60,32.42 108.92,32.42 108.92,32.42 Z
           M 68.60,19.40
           C 68.60,19.40 68.60,25.91 68.60,25.91
             68.60,25.91 24.09,25.91 24.09,25.91
             24.09,25.91 24.09,67.48 24.09,67.48
             24.09,67.48 17.58,67.48 17.58,67.48
             17.58,67.48 17.58,121.86 17.58,121.86
             17.58,121.86 70.91,121.86 70.91,121.86
             70.91,121.86 70.91,115.35 70.91,115.35
             70.91,115.35 115.42,115.35 115.42,115.35
             115.42,115.35 115.42,73.78 115.42,73.78
             115.42,73.78 121.93,73.78 121.93,73.78
             121.93,73.78 121.93,19.40 121.93,19.40
             121.93,19.40 68.60,19.40 68.60,19.40 Z
           M 108.92,32.42
           C 108.92,32.42 108.92,108.85 108.92,108.85
             108.92,108.85 30.60,108.85 30.60,108.85
             30.60,108.85 30.60,32.42 30.60,32.42
             30.60,32.42 108.92,32.42 108.92,32.42 Z" />
</svg>
